<svg width="24" height="24" viewBox="0 0 24 24" fill="none" xmlns="http://www.w3.org/2000/svg">
<path fill-rule="evenodd" clip-rule="evenodd" d="M3 0C1.34315 0 0 1.34315 0 3V21C0 22.6569 1.34315 24 3 24H21C22.6569 24 24 22.6569 24 21V3C24 1.34315 22.6569 0 21 0H3ZM8.788 4.68C8.492 4.888 8.22 5.108 7.972 5.34L8.536 6.24C8.648 6.424 8.804 6.516 9.004 6.516C9.1 6.516 9.22 6.456 9.364 6.336C9.516 6.216 9.712 6.084 9.952 5.94C10.192 5.796 10.484 5.664 10.828 5.544C11.18 5.424 11.6 5.364 12.088 5.364C12.448 5.364 12.784 5.416 13.096 5.52C13.416 5.624 13.692 5.776 13.924 5.976C14.156 6.168 14.34 6.404 14.476 6.684C14.612 6.964 14.68 7.276 14.68 7.62C14.68 8.116 14.584 8.544 14.392 8.904C14.2 9.256 13.96 9.572 13.672 9.852C13.392 10.132 13.088 10.388 12.76 10.62C12.432 10.844 12.132 11.076 11.86 11.316C11.588 11.548 11.368 11.8 11.2 12.072C11.032 12.336 10.964 12.648 10.996 13.008L11.14 15H12.604L12.82 13.164C12.852 12.9 12.968 12.66 13.168 12.444C13.376 12.228 13.624 12.012 13.912 11.796L14.824 11.112C15.152 10.864 15.452 10.576 15.724 10.248C16.004 9.912 16.232 9.524 16.408 9.084C16.592 8.644 16.684 8.12 16.684 7.512C16.684 6.912 16.572 6.372 16.348 5.892C16.124 5.412 15.816 5.004 15.424 4.668C15.032 4.332 14.564 4.072 14.02 3.888C13.484 3.704 12.9 3.612 12.268 3.612C11.788 3.612 11.34 3.66 10.924 3.756C10.516 3.844 10.132 3.968 9.772 4.128C9.42 4.288 9.092 4.472 8.788 4.68ZM10.42 19.092C10.348 19.276 10.312 19.472 10.312 19.68C10.312 19.896 10.348 20.096 10.42 20.28C10.5 20.456 10.604 20.612 10.732 20.748C10.868 20.884 11.028 20.988 11.212 21.06C11.396 21.14 11.592 21.18 11.8 21.18C12.008 21.18 12.204 21.14 12.388 21.06C12.572 20.988 12.732 20.884 12.868 20.748C13.004 20.612 13.112 20.456 13.192 20.28C13.272 20.096 13.312 19.896 13.312 19.68C13.312 19.472 13.272 19.276 13.192 19.092C13.112 18.908 13.004 18.748 12.868 18.612C12.732 18.476 12.572 18.368 12.388 18.288C12.204 18.208 12.008 18.168 11.8 18.168C11.592 18.168 11.396 18.208 11.212 18.288C11.028 18.368 10.868 18.476 10.732 18.612C10.604 18.748 10.5 18.908 10.42 19.092Z" fill="currentColor"/>
</svg>
