<svg width="34" height="34" viewBox="0 0 34 34" fill="none" xmlns="http://www.w3.org/2000/svg">
<path d="M12.5 1C11.3333 1.33333 8 2.8 4 6L5.5 10.5L7 14.5L9 18.5L12.5 16L14.5 14.5L18.5 13H23L27 12L30.5 9L32.5 6H30.5L27 7L24.5 6L21 3L17 1H12.5Z" fill="currentColor"/>
<path d="M1.69205 5.67678L10.0846 33.5538L8.39259 34L0 6.12122L1.69205 5.67505V5.67678ZM3.71253 4.86812C3.73351 4.85159 10.8355 -1.05186 16.3957 0.165294C23.3651 1.69245 22.9705 8.53094 31.9918 4.51699L34 3.62307L33.1844 5.56347C29.8543 13.4896 25.96 13.5748 21.5001 13.6716C14.3962 13.8259 12.1592 15.7958 8.05375 21.0218L3.29346 5.21091L3.71253 4.86812ZM15.9959 1.77441C12.0283 0.905076 6.7947 4.62038 5.28945 5.77513L8.789 17.4001C13.4462 12.2002 17.6653 12.1068 21.4651 12.0231C24.9193 11.9476 27.9788 11.8787 30.6733 6.81672C22.3522 9.57411 22.0223 3.09322 15.9976 1.77283L15.9959 1.77441Z" fill="currentColor"/>
</svg>
